<?xml version="1.0" standalone="no"?>
<!DOCTYPE svg PUBLIC "-//W3C//DTD SVG 20010904//EN"
 "http://www.w3.org/TR/2001/REC-SVG-20010904/DTD/svg10.dtd">
<svg version="1.0" xmlns="http://www.w3.org/2000/svg"
 width="512.000000pt" height="512.000000pt" viewBox="0 0 512.000000 512.000000"
 preserveAspectRatio="xMidYMid meet">
<metadata>
Created by potrace 1.15, written by Peter Selinger 2001-2017
</metadata>
<g transform="translate(0.000000,512.000000) scale(0.100000,-0.100000)"
fill="#000000" stroke="none">
<path d="M1974 5046 c-412 -67 -746 -347 -883 -740 -51 -146 -61 -228 -61
-521 l0 -262 -24 -11 c-114 -52 -168 -210 -121 -353 17 -49 87 -134 136 -164
15 -9 0 -72 -137 -585 -85 -316 -154 -589 -154 -606 0 -18 8 -38 20 -49 25
-22 120 -43 238 -51 l93 -7 88 93 88 94 7 -68 c4 -37 6 -69 4 -70 -1 -1 -100
-35 -218 -76 -118 -40 -242 -86 -275 -103 -76 -38 -190 -152 -232 -232 -60
-114 -63 -144 -63 -554 0 -358 1 -372 20 -391 20 -20 33 -20 1238 -20 l1218 0
39 -40 c132 -135 357 -239 572 -263 510 -56 982 302 1063 807 16 95 8 320 -14
398 -81 293 -259 512 -520 638 -155 75 -248 95 -439 95 -150 0 -158 1 -163 20
-2 11 -49 235 -103 497 l-98 477 52 54 c63 65 85 123 85 221 0 109 -52 200
-136 238 -22 10 -22 14 -27 302 -5 322 -12 370 -73 530 -134 348 -446 615
-809 691 -107 22 -308 28 -411 11z m359 -1295 c132 -108 264 -181 430 -236
106 -35 251 -65 318 -65 30 0 42 -6 55 -25 10 -15 30 -27 51 -31 107 -20 137
-145 56 -235 -20 -22 -51 -44 -74 -50 -61 -19 -71 -37 -80 -147 -36 -418 -332
-764 -717 -838 -96 -18 -348 -18 -444 0 -94 18 -194 55 -264 97 -256 155 -427
434 -453 741 -9 106 -21 131 -69 143 -82 20 -139 99 -129 181 6 56 36 90 91
105 23 6 47 18 54 27 10 13 29 17 80 17 93 0 154 32 204 105 l36 55 128 12
c230 22 383 64 549 149 55 29 102 52 103 53 2 1 36 -25 75 -58z m-413 -1767
c154 -25 473 -13 564 22 14 5 16 -4 16 -73 l0 -78 -175 -175 -175 -175 -175
175 -175 175 0 78 c0 71 2 78 18 72 9 -4 55 -13 102 -21z m1098 -130 l53 -47
-32 -27 -33 -27 -63 21 c-35 11 -63 23 -63 26 0 10 72 100 79 100 3 0 30 -21
59 -46z m832 -10 c159 -35 283 -105 405 -228 93 -95 140 -163 181 -264 47
-117 59 -180 59 -317 0 -137 -12 -200 -59 -317 -41 -101 -88 -169 -181 -263
-122 -124 -243 -191 -411 -231 -99 -23 -313 -15 -409 16 -290 93 -492 305
-572 601 -24 89 -24 301 0 388 43 157 99 259 205 372 119 127 260 208 424 243
128 27 232 27 358 0z m-1952 -287 l183 -183 -3 -146 -3 -147 -295 286 c-162
158 -296 289 -298 293 -2 5 200 77 223 79 6 1 92 -81 193 -182z m809 145 c57
-20 103 -40 103 -44 0 -4 -132 -136 -293 -292 l-292 -285 -3 147 -3 146 183
183 c101 101 187 183 193 182 5 0 56 -17 112 -37z m-975 -486 l348 -339 0
-178 0 -179 -730 0 -730 0 0 284 c0 156 5 307 10 336 23 121 107 238 211 294
28 16 148 61 267 101 l217 73 30 -27 c16 -14 186 -178 377 -365z m1001 88
c-25 -83 -27 -101 -27 -269 0 -167 2 -186 27 -268 15 -48 45 -123 67 -167 l40
-80 -310 0 -310 0 0 177 0 178 268 261 c147 144 268 260 270 259 1 -1 -10 -42
-25 -91z"/>
<path d="M3620 1420 c-18 -18 -20 -33 -20 -170 l0 -150 -150 0 c-137 0 -152
-2 -170 -20 -27 -27 -25 -66 5 -95 23 -24 28 -25 170 -25 l145 0 0 -145 c0
-142 1 -147 25 -170 31 -32 59 -32 90 0 24 23 25 28 25 170 l0 145 145 0 c142
0 147 1 170 25 30 29 32 68 5 95 -18 18 -33 20 -170 20 l-150 0 0 150 c0 137
-2 152 -20 170 -11 11 -33 20 -50 20 -17 0 -39 -9 -50 -20z"/>
<path d="M2325 830 c-24 -26 -23 -76 1 -100 38 -39 166 -38 205 1 25 25 24 74
-1 99 -17 17 -33 20 -103 20 -71 0 -87 -3 -102 -20z"/>
</g>
</svg>
